<?xml version="1.0" encoding="UTF-8" standalone="no"?>
<!-- Created with Inkscape (http://www.inkscape.org/) -->

<svg
   width="34.047478mm"
   height="53.640549mm"
   viewBox="0 0 34.047478 53.640549"
   version="1.1"
   id="svg1"
   xmlns="http://www.w3.org/2000/svg"
   xmlns:svg="http://www.w3.org/2000/svg">
  <defs
     id="defs1" />
  <g
     id="layer1"
     transform="translate(-105.2565,-63.485137)">
    <g
       id="g1"
       style="fill:#800000;stroke:#ffffff;stroke-width:0.377953">
      <path
         id="path6"
         style="fill:#e9e9ff;fill-rule:evenodd;stroke:none;stroke-linejoin:round"
         d="m 228.43666,161.83872 16.12383,-19.23293 v 23.3615 l -16.12383,14.64353 z"
         points="244.56049,142.60579 244.56049,165.96729 228.43666,180.61082 228.43666,161.83872 " />
      <path
         id="path1"
         style="fill:#353564;fill-rule:evenodd;stroke:none;stroke-linejoin:round"
         d="M 210.513,152.05013 V 173.158 l 17.92366,7.45282 v -18.7721 z"
         points="210.513,173.158 228.43666,180.61082 228.43666,161.83872 210.513,152.05013 " />
      <path
         id="path2"
         style="fill:#4d4d9f;fill-rule:evenodd;stroke:none;stroke-linejoin:round"
         d="m 210.513,152.05013 13.6171,-25.07986 20.43039,15.63552 -16.12383,19.23293 z"
         points="224.1301,126.97027 244.56049,142.60579 228.43666,161.83872 210.513,152.05013 " />
      <path
         id="path5"
         style="fill:#afafde;fill-rule:evenodd;stroke:none;stroke-linejoin:round"
         d="m 210.513,173.158 13.6171,-19.09524 20.43039,11.90453 -16.12383,14.64353 z"
         points="224.1301,154.06276 244.56049,165.96729 228.43666,180.61082 210.513,173.158 " />
      <path
         id="path4"
         style="fill:#d7d7ff;fill-rule:evenodd;stroke:none;stroke-linejoin:round"
         d="m 224.1301,126.97027 v 27.09249 l 20.43039,11.90453 v -23.3615 z"
         points="224.1301,154.06276 244.56049,165.96729 244.56049,142.60579 224.1301,126.97027 " />
      <path
         id="path3"
         style="fill:#8686bf;fill-rule:evenodd;stroke:none;stroke-linejoin:round"
         d="m 210.513,152.05013 13.6171,-25.07986 v 27.09249 L 210.513,173.158 Z"
         points="224.1301,126.97027 224.1301,154.06276 210.513,173.158 210.513,152.05013 " />
    </g>
  </g>
</svg>
